<svg width="18" height="18" viewBox="0 0 18 18" fill="none" xmlns="http://www.w3.org/2000/svg">
<path d="M10.4978 3.5C10.7683 3.5 11.0339 3.56709 11.2663 3.69418C11.4987 3.82126 11.6892 4.0036 11.8178 4.22188L12.1823 4.84062C12.3108 5.0589 12.5013 5.24124 12.7337 5.36832C12.9661 5.49541 13.2317 5.5625 13.5023 5.5625H15C15.3978 5.5625 15.7794 5.70737 16.0607 5.96523C16.342 6.22309 16.5 6.57283 16.5 6.9375V13.125C16.5 13.4897 16.342 13.8394 16.0607 14.0973C15.7794 14.3551 15.3978 14.5 15 14.5H3C2.60218 14.5 2.22064 14.3551 1.93934 14.0973C1.65804 13.8394 1.5 13.4897 1.5 13.125V6.9375C1.5 6.57283 1.65804 6.22309 1.93934 5.96523C2.22064 5.70737 2.60218 5.5625 3 5.5625H4.49775C4.76807 5.56251 5.03336 5.49557 5.26559 5.36874C5.49781 5.24191 5.68833 5.05992 5.817 4.842L6.18375 4.2205C6.31242 4.00258 6.50294 3.82059 6.73516 3.69376C6.96739 3.56693 7.23268 3.49999 7.503 3.5H10.4978Z" stroke="white" stroke-width="1.83333" stroke-linecap="round" stroke-linejoin="round"/>
<path d="M9 11.75C10.2426 11.75 11.25 10.8266 11.25 9.6875C11.25 8.54841 10.2426 7.625 9 7.625C7.75736 7.625 6.75 8.54841 6.75 9.6875C6.75 10.8266 7.75736 11.75 9 11.75Z" stroke="white" stroke-width="1.83333" stroke-linecap="round" stroke-linejoin="round"/>
</svg>
