<svg width="24" height="24" viewBox="0 0 24 24" fill="none" xmlns="http://www.w3.org/2000/svg">
<path d="M12 20H12.01" stroke="#3498DB" stroke-width="2" stroke-linecap="round" stroke-linejoin="round"/>
<path d="M8.5 16.429C9.43464 15.5129 10.6912 14.9998 12 14.9998C13.3088 14.9998 14.5654 15.5129 15.5 16.429" stroke="#3498DB" stroke-width="2" stroke-linecap="round" stroke-linejoin="round"/>
<path d="M5 12.8589C6.41803 11.4689 8.21781 10.5324 10.17 10.1689" stroke="#3498DB" stroke-width="2" stroke-linecap="round" stroke-linejoin="round"/>
<path d="M19 12.8591C18.3979 12.2688 17.7236 11.7571 16.993 11.3361" stroke="#3498DB" stroke-width="2" stroke-linecap="round" stroke-linejoin="round"/>
<path d="M2 8.82C3.2366 7.71408 4.64809 6.82095 6.177 6.177" stroke="#3498DB" stroke-width="2" stroke-linecap="round" stroke-linejoin="round"/>
<path d="M22 8.82003C20.4748 7.45585 18.6865 6.41818 16.7452 5.77087C14.804 5.12355 12.7508 4.88029 10.712 5.05603" stroke="#3498DB" stroke-width="2" stroke-linecap="round" stroke-linejoin="round"/>
<path d="M2 2L22 22" stroke="#3498DB" stroke-width="2" stroke-linecap="round" stroke-linejoin="round"/>
</svg>
